<svg width="64" height="64" viewBox="0 0 100 100" fill="none" xmlns="http://www.w3.org/2000/svg">
<g clip-path="url(#clip0_3_2)">
<path d="M10 72L48 50L43.5 47.5L14 64.5V45H10V72Z" fill="#FC0000"/>
<path d="M14 49H10V28L48 50L43.5 52.5L14 35.5V49Z" fill="#FC0000"/>
<path d="M51 96L89 74L84.5 71.5L55 88.5V69H51V96Z" fill="#FC0000"/>
<path d="M55 73H51V52L89 74L84.5 76.5L55 59.5V73Z" fill="#FC0000"/>
<path d="M11 74L49.0526 95.909L48.9676 90.7619L19.4952 73.7141L36.3827 63.9641L34.3827 60.5L11 74Z" fill="#FC0000"/>
<path d="M32.9186 65.9641L30.9186 62.5L49.1051 52L49.0526 95.909L44.6375 93.2619L44.6099 59.2141L32.9186 65.9641Z" fill="#FC0000"/>
<path d="M11 26L49.0526 47.909L48.9676 42.7619L19.4952 25.7141L36.3827 15.9641L34.3827 12.5L11 26Z" fill="#FC0000"/>
<path d="M32.9186 17.9641L30.9186 14.5L49.1051 4L49.0526 47.909L44.6375 45.2619L44.6099 11.2141L32.9186 17.9641Z" fill="#FC0000"/>
</g>
<defs>
<clipPath id="clip0_3_2">
<rect width="100" height="100" fill="white"/>
</clipPath>
</defs>
</svg>
